<svg xmlns="http://www.w3.org/2000/svg" viewBox="0 0 64 64" role="img" aria-label="Telegram Automation">
  <defs>
    <linearGradient id="bg" x1="10" y1="6" x2="54" y2="58" gradientUnits="userSpaceOnUse">
      <stop offset="0" stop-color="#111827"/>
      <stop offset="0.48" stop-color="#7f1d1d"/>
      <stop offset="1" stop-color="#e11d48"/>
    </linearGradient>
    <linearGradient id="bolt" x1="24" y1="12" x2="42" y2="52" gradientUnits="userSpaceOnUse">
      <stop offset="0" stop-color="#ffffff"/>
      <stop offset="0.52" stop-color="#e0f2fe"/>
      <stop offset="1" stop-color="#22d3ee"/>
    </linearGradient>
    <filter id="shadow" x="-30%" y="-30%" width="160%" height="160%">
      <feDropShadow dx="0" dy="5" stdDeviation="4" flood-color="#020617" flood-opacity="0.45"/>
    </filter>
  </defs>
  <rect width="64" height="64" rx="14" fill="#07090d"/>
  <rect x="5" y="5" width="54" height="54" rx="12" fill="url(#bg)" filter="url(#shadow)"/>
  <path d="M17 34.5 45.5 16c1.7-1.1 3.7.7 2.8 2.5L39.5 47c-.7 2.2-3.8 2.3-4.7.2l-4.1-9.8-9.9-1.4c-2.2-.3-3.5-2.7-1.6-3.9Z" fill="#020617" opacity="0.34"/>
  <path d="M18 31.5 45.5 15c1.6-1 3.5.7 2.7 2.4L37.8 48.2c-.7 2-3.6 2-4.4 0l-3.8-10.3-9.9-2.3c-2-.5-2.5-3.1-1.7-4.1Z" fill="url(#bolt)"/>
  <path d="M30.2 37.6 47.1 16.2 28.1 34.8l-9.6-2.5c-.5-.1-.6-.8-.1-1.1l28-16.5c.8-.5 1.8.4 1.3 1.3L36.5 47.7c-.3.8-1.4.8-1.7 0l-4.6-10.1Z" fill="#ffffff" opacity="0.22"/>
  <circle cx="48" cy="17" r="3.2" fill="#22c55e"/>
</svg>
